<?xml version="1.0" encoding="utf-8"?>
<!-- Generator: Adobe Illustrator 21.1.0, SVG Export Plug-In . SVG Version: 6.00 Build 0)  -->
<svg version="1.1" id="Calque_1" xmlns="http://www.w3.org/2000/svg" xmlns:xlink="http://www.w3.org/1999/xlink" x="0px" y="0px"
	 viewBox="0 0 92.7 44.3" style="enable-background:new 0 0 92.7 44.3;" xml:space="preserve">
<path d="M46.2,43.7c-17.7,0-31.8-9.2-44.6-20.7C14,10.8,28.2,0.7,46.2,0.7c18.4,0,32.5,10.2,45,22.3C78.4,34.5,64.3,43.7,46.2,43.7z
	 M46.2,39.1c12.5,0,25.3-5.6,37.7-16.4C71.5,11.2,58.7,5.6,46.2,5.6S21.3,11.2,8.8,22.6C21.3,33.5,33.7,39.1,46.2,39.1z"/>
<path d="M52.5,9.8c-3,0.3-5.6,3.3-5.6,6.6c0,7.2,10.5,8.9,12.8,2c2.6,8.9-3.9,17.7-13.1,17.7c-7.9,0-14.1-6.2-14.1-13.8
	c0-0.1,0-0.1,0-0.2c0.1-7.7,6.4-14,14.1-13.9C48.7,8.2,50.7,8.8,52.5,9.8z"/>
</svg>
