<?xml version="1.0" encoding="utf-8"?>
<!-- Generator: Adobe Illustrator 21.1.0, SVG Export Plug-In . SVG Version: 6.00 Build 0)  -->
<svg version="1.1" id="Calque_1" xmlns="http://www.w3.org/2000/svg" xmlns:xlink="http://www.w3.org/1999/xlink" x="0px" y="0px"
	 viewBox="0 0 300 300" style="enable-background:new 0 0 300 300;" xml:space="preserve">
<path d="M224.2,141.7l2.7,3.8l-5.7,4l5.7,4l-2.7,3.8l-7.1-5l-14.3,10l8.7,16.3l7.8-1l0.6,4.6l-6.1,0.7l3,5.6l-4.1,2.2l-3.8-7.2
	l-18.4,2.3v18.5l7.6,2.9l-1.7,4.3l-5.9-2.3v6.2h-4.6v-8l-17.3-6.6l-8.2,15.4l5.8,6.4l-3.5,3.1l-4.7-5.2l-3.3,6.2l-4.1-2.2l4.1-7.7
	l-11.7-13l-15.2,10.6l1.9,7.6l-4.5,1.1l-1.5-5.9l-5.3,3.7l-2.7-3.8l6.7-4.7l-4.5-18l-18.4,2.3l-2,7.8l-4.5-1.1l1.5-6.1l-6.2,0.8
	l-0.6-4.6l7.9-1l4.5-18l-17.3-6.6l-5.5,6.1l-3.5-3.1l4.3-4.8l-5.6-2.2l1.7-4.3l7.3,2.8l11.9-13.3l-11.9-13.3l-7.3,2.8l-1.7-4.3
	l5.6-2.2l-4.3-4.8l3.5-3.1l5.5,6.1l17.3-6.6l-4.5-18l-7.9-1l0.6-4.6l6.2,0.8l-1.5-6.1l4.5-1.1l2,7.8l18.4,2.3l4.5-18l-6.7-4.7
	l2.7-3.8l5.3,3.7l1.5-5.9l4.5,1.1l-1.9,7.6l15.2,10.6l11.7-13l-4.1-7.7l4.1-2.2l3.3,6.2l4.7-5.2l3.5,3.1l-5.8,6.4l8.2,15.4l17.3-6.6
	v-8h4.6v6.2l5.9-2.3l1.7,4.3l-7.6,2.9v18.5l18.4,2.3l3.8-7.2l4.1,2.2l-3,5.6l6.1,0.7l-0.6,4.6l-7.8-1l-8.7,16.3l14.3,10L224.2,141.7
	z M200.6,158.2l12.4-8.7l-12.4-8.7l-4.6,8.7L200.6,158.2z M198.9,134l7.6-14.3l-16-2v10.3L198.9,134z M206.5,179.3l-7.6-14.3
	l-8.4,5.9v10.3L206.5,179.3z M193.3,144.5l3.4-6.4l-6.3-4.4v5.5L193.3,144.5z M196.7,160.9l-3.4-6.4l-2.8,5.3v5.5L196.7,160.9z
	 M190.7,149.5l-0.2-0.4v0.7L190.7,149.5z M185.8,202.6v-16.1l-10.2,1.3l-4.8,9.1L185.8,202.6z M185.8,181.8v-7.6l-4.8,3.4l-2.8,5.2
	L185.8,181.8z M185.8,158.6v-18.2l-8.4-15.8l-14.6-10.3l-18.1-2.2l-16.7,6.4l-12,13.3l-4.4,17.7l4.4,17.7l12,13.3l16.7,6.4l18.1-2.2
	l14.6-10.3L185.8,158.6z M185.8,130.5L185.8,130.5L185.8,130.5L185.8,130.5z M185.8,124.8v-7.6l-7.6-0.9l2.8,5.2L185.8,124.8z
	 M185.8,112.5V96.4l-15.1,5.8l4.8,9.1L185.8,112.5z M172.6,115.6L172.6,115.6L172.6,115.6L172.6,115.6z M170,110.5l-3.6-6.7
	l-6.8,2.6l4.9,3.5L170,110.5z M166.4,195.2l3.6-6.7l-5.5,0.7l-4.9,3.5L166.4,195.2z M164.2,99.7l-7.1-13.4l-10.1,11.3l8.1,5.6
	L164.2,99.7z M157.1,212.7l7.1-13.4l-9.2-3.5l-8.1,5.6L157.1,212.7z M154,108.6l0.7,0.1l-0.3-0.2L154,108.6z M154.4,190.6l0.3-0.2
	l-0.7,0.1L154.4,190.6z M144.1,107.4l5.6-2.2l-6-4.2l-5.1,5.7L144.1,107.4z M143.8,198l6-4.2l-5.6-2.2l-5.4,0.7L143.8,198z
	 M133.1,106l6.9-7.7l-13.2-9.3l-3.9,15.7L133.1,106z M140,200.6l-6.9-7.7l-10.2,1.3l3.9,15.7L140,200.6z M125.3,114.6l3.9-4.4
	l-7.6-0.9l-1.8,7.4L125.3,114.6z M129.3,188.8l-3.9-4.4l-5.5-2.1l1.8,7.4L129.3,188.8z M118.5,122.2L118.5,122.2L118.5,122.2
	L118.5,122.2z M114.5,118.7l2.5-10l-16-2l3.9,15.7L114.5,118.7z M117,190.3l-2.5-10l-9.6-3.7l-3.9,15.7L117,190.3z M111.8,129.6
	l1.3-5.3L106,127l1.8,7.1L111.8,129.6z M113.2,174.8l-1.3-5.3l-4-4.5L106,172L113.2,174.8z M109.3,139.9l0.2-0.7l-0.3,0.3
	L109.3,139.9z M109.4,159.8l-0.2-0.7l-0.1,0.4L109.4,159.8z M106.9,149.5l-1.5-5.8l-5.3,5.8l5.3,5.8L106.9,149.5z M104.1,138.2
	l-2.4-9.6l-15.1,5.8L97,146L104.1,138.2z M104.1,160.8l-7-7.8l-10.4,11.6l15.1,5.8L104.1,160.8z"/>
<circle cx="149.9" cy="149.5" r="22.7"/>
</svg>
